<?xml version="1.0" standalone="no"?><svg xmlns:xlink="http://www.w3.org/1999/xlink" xmlns="http://www.w3.org/2000/svg" viewBox="0 0 2500 1818.181818181818" preserveAspectRatio="xMaxYMax slice"><g transform="scale(3.456619426201175)"><rect x="0" y="0" width="723.25" height="526" fill="#fafafa"/><rect x="0" y="0" width="65.75" height="65.75" fill="#adadad"/><polygon points="65.75,0 65.75,65.75 0,65.75" fill="#dcdcdc"/><rect x="65.75" y="0" width="65.75" height="65.75" fill="#fafafa"/><rect x="65.75" y="0" width="32.88" height="32.88" fill="#242424"/><polygon points="98.63,0 98.63,32.88 65.75,32.88" fill="#63caab"/><rect x="98.63" y="0" width="32.88" height="32.88" fill="#ebebeb"/><polygon points="98.63,0 131.51,32.88 98.63,32.88" fill="#e7f4f0"/><rect x="65.75" y="32.88" width="32.88" height="32.88" fill="#343434"/><polygon points="65.75,32.88 98.63,32.88 98.63,65.76" fill="#8b8b8b"/><rect x="98.63" y="32.88" width="32.88" height="32.88" fill="#ebebeb"/><polygon points="98.63,32.88 131.51,32.88 98.63,65.76" fill="#4a4a4a"/><rect x="131.5" y="0" width="65.75" height="65.75" fill="#fafafa"/><rect x="131.5" y="0" width="32.88" height="32.88" fill="#979797"/><path d="M 131.5 32.88 A 32.88 32.88 0 0 0 164.38 0 L 131.5 0" fill="#898989"/><rect x="164.38" y="0" width="32.88" height="32.88" fill="#cdcdcd"/><path d="M 164.38 0 A 32.88 32.88 0 0 0 197.26 32.88 L 197.26 0" fill="#656565"/><rect x="131.5" y="32.88" width="32.88" height="32.88" fill="#5f5f5f"/><path d="M 131.5 32.88 A 32.88 32.88 0 0 1 164.38 65.76 L 131.5 65.76" fill="#8dd7c1"/><rect x="164.38" y="32.88" width="32.88" height="32.88" fill="#92d9c3"/><path d="M 164.38 65.76 A 32.88 32.88 0 0 1  197.26 32.88 L 197.26 65.76" fill="#9e9e9e"/><rect x="197.25" y="0" width="65.75" height="65.75" fill="#fafafa"/><rect x="197.25" y="0" width="32.88" height="32.88" fill="#cdcdcd"/><path d="M 197.25 32.88 A 32.88 32.88 0 0 1 230.13 0 L 230.13 8.22 A 24.660000000000004 24.660000000000004 0 0 0 205.47 32.88" fill="#404040"/><rect x="230.13" y="0" width="32.88" height="32.88" fill="#838383"/><path d="M 230.13 0 A 32.88 32.88 0 0 1 263.01 32.88 L 254.79 32.88 A 24.660000000000004 24.660000000000004 0 0 0 230.13 8.22" fill="#989898"/><rect x="197.25" y="32.88" width="32.88" height="32.88" fill="#8fd8c2"/><path d="M 197.25 32.88 A 32.88 32.88 0 0 0 230.13 65.76 L 230.13 57.540000000000006 A 24.660000000000004 24.660000000000004 0 0 1 205.47 32.88" fill="#2a2a2a"/><rect x="230.13" y="32.88" width="32.88" height="32.88" fill="#2e2e2e"/><path d="M 230.13 65.76 A 32.88 32.88 0 0 0 263.01 32.88 L 254.79 32.88 A 24.660000000000004 24.660000000000004 0 0 1 230.13 57.540000000000006" fill="#5d5d5d"/><rect x="263" y="0" width="65.75" height="65.75" fill="#cfece3"/><rect x="263" y="0" width="65.75" height="65.75" fill="#a3decc"/><rect x="328.75" y="0" width="65.75" height="65.75" fill="#fafafa"/><rect x="328.75" y="0" width="32.88" height="32.88" fill="#626262"/><polygon points="361.63,0 361.63,32.88 328.75,32.88" fill="#707070"/><rect x="361.63" y="0" width="32.88" height="32.88" fill="#b7e5d7"/><polygon points="361.63,0 394.51,32.88 361.63,32.88" fill="#c4e9de"/><rect x="328.75" y="32.88" width="32.88" height="32.88" fill="#272727"/><polygon points="328.75,32.88 361.63,32.88 328.75,65.76" fill="#d2d2d2"/><rect x="361.63" y="32.88" width="32.88" height="32.88" fill="#e2f2ed"/><polygon points="361.63,32.88 394.51,32.88 394.51,65.76" fill="#e1f2ed"/><rect x="394.5" y="0" width="65.75" height="65.75" fill="#fafafa"/><rect x="394.5" y="0" width="32.88" height="32.88" fill="#a0ddca"/><path d="M 394.5 32.88 A 32.88 32.88 0 0 1 427.38 0 L 427.38 8.22 A 24.660000000000004 24.660000000000004 0 0 0 402.72 32.88" fill="#a9e1d0"/><rect x="427.38" y="0" width="32.88" height="32.88" fill="#4fc4a0"/><path d="M 427.38 0 A 32.88 32.88 0 0 1 460.26 32.88 L 452.04 32.88 A 24.660000000000004 24.660000000000004 0 0 0 427.38 8.22" fill="#eaeaea"/><rect x="394.5" y="32.88" width="32.88" height="32.88" fill="#70ceb2"/><path d="M 394.5 32.88 A 32.88 32.88 0 0 0 427.38 65.76 L 427.38 57.540000000000006 A 24.660000000000004 24.660000000000004 0 0 1 402.72 32.88" fill="#929292"/><rect x="427.38" y="32.88" width="32.88" height="32.88" fill="#444444"/><path d="M 427.38 65.76 A 32.88 32.88 0 0 0 460.26 32.88 L 452.04 32.88 A 24.660000000000004 24.660000000000004 0 0 1 427.38 57.540000000000006" fill="#747474"/><rect x="460.25" y="0" width="65.75" height="65.75" fill="#fafafa"/><rect x="460.25" y="0" width="32.88" height="32.88" fill="#eeeeee"/><polygon points="493.13,0 493.13,32.88 460.25,32.88" fill="#9e9e9e"/><rect x="493.13" y="0" width="32.88" height="32.88" fill="#7ed3b9"/><polygon points="493.13,0 526.01,32.88 493.13,32.88" fill="#b9e5d8"/><rect x="460.25" y="32.88" width="32.88" height="32.88" fill="#7fd3b9"/><polygon points="460.25,32.88 493.13,32.88 493.13,65.76" fill="#9adcc8"/><rect x="493.13" y="32.88" width="32.88" height="32.88" fill="#acacac"/><polygon points="493.13,32.88 526.01,32.88 493.13,65.76" fill="#b1e3d4"/><rect x="526" y="0" width="65.75" height="65.75" fill="#fafafa"/><rect x="526" y="0" width="32.88" height="32.88" fill="#d0d0d0"/><polygon points="558.88,0 558.88,32.88 526,32.88" fill="#a6a6a6"/><rect x="558.88" y="0" width="32.88" height="32.88" fill="#80d3ba"/><polygon points="558.88,0 591.76,0 558.88,32.88" fill="#79d1b6"/><rect x="526" y="32.88" width="32.88" height="32.88" fill="#daf0e9"/><polygon points="526,32.88 558.88,32.88 558.88,65.76" fill="#8e8e8e"/><rect x="558.88" y="32.88" width="32.88" height="32.88" fill="#d7d7d7"/><polygon points="558.88,32.88 591.76,65.76 558.88,65.76" fill="#a4dfcd"/><rect x="591.75" y="0" width="65.75" height="65.75" fill="#fafafa"/><rect x="591.75" y="0" width="32.88" height="32.88" fill="#afe2d2"/><polygon points="624.63,0 624.63,32.88 591.75,32.88" fill="#828282"/><rect x="624.63" y="0" width="32.88" height="32.88" fill="#a5dfcd"/><polygon points="624.63,0 657.51,32.88 624.63,32.88" fill="#91d9c3"/><rect x="591.75" y="32.88" width="32.88" height="32.88" fill="#8f8f8f"/><polygon points="591.75,32.88 624.63,32.88 624.63,65.76" fill="#e7e7e7"/><rect x="624.63" y="32.88" width="32.88" height="32.88" fill="#3b3b3b"/><polygon points="624.63,32.88 657.51,32.88 624.63,65.76" fill="#333333"/><rect x="657.5" y="0" width="65.75" height="65.75" fill="#7dd2b8"/><rect x="657.5" y="0" width="65.75" height="65.75" fill="#e9f4f1"/><rect x="0" y="65.75" width="65.75" height="65.75" fill="#fafafa"/><rect x="0" y="65.75" width="32.88" height="32.88" fill="#c6c6c6"/><path d="M 0 98.63 A 32.88 32.88 0 0 0 32.88 65.75 L 0 65.75" fill="#a2decc"/><rect x="32.88" y="65.75" width="32.88" height="32.88" fill="#e3e3e3"/><path d="M 32.88 65.75 A 32.88 32.88 0 0 0 65.76 98.63 L 65.76 65.75" fill="#87d6be"/><rect x="0" y="98.63" width="32.88" height="32.88" fill="#323232"/><path d="M 0 98.63 A 32.88 32.88 0 0 1 32.88 131.51 L 0 131.51" fill="#d5d5d5"/><rect x="32.88" y="98.63" width="32.88" height="32.88" fill="#f7f7f7"/><path d="M 32.88 131.51 A 32.88 32.88 0 0 1  65.76 98.63 L 65.76 131.51" fill="#a9e0cf"/><rect x="65.75" y="65.75" width="65.75" height="65.75" fill="#1e1e1e"/><polygon points="65.75,65.75 131.5,131.5 65.75,131.5" fill="#7bd2b7"/><rect x="131.5" y="65.75" width="65.75" height="65.75" fill="#9dddc9"/><rect x="131.5" y="65.75" width="65.75" height="65.75" fill="#8fd8c2"/><rect x="197.25" y="65.75" width="65.75" height="65.75" fill="#fafafa"/><rect x="197.25" y="65.75" width="32.88" height="32.88" fill="#57c6a4"/><circle cx="213.69" cy="82.19" r="16.44" fill="#e1f2ed"/><rect x="230.13" y="65.75" width="32.88" height="32.88" fill="#eef6f4"/><rect x="230.13" y="65.75" width="32.88" height="32.88" fill="#686868"/><rect x="197.25" y="98.63" width="32.88" height="32.88" fill="#59c7a6"/><circle cx="213.69" cy="115.07" r="16.44" fill="#a2a2a2"/><rect x="230.13" y="98.63" width="32.88" height="32.88" fill="#c0e8db"/><rect x="230.13" y="98.63" width="32.88" height="32.88" fill="#8ed8c1"/><rect x="263" y="65.75" width="65.75" height="65.75" fill="#e9f5f1"/><path d="M 263 131.5 A 65.75 65.75 0 0 0 328.75 65.75 L 263 65.75" fill="#69ccae"/><rect x="328.75" y="65.75" width="65.75" height="65.75" fill="#747474"/><path d="M 328.75 65.75 A 65.75 65.75 0 0 0 394.5 131.5 L 394.5 65.75" fill="#717171"/><rect x="394.5" y="65.75" width="65.75" height="65.75" fill="#fafafa"/><rect x="394.5" y="65.75" width="32.88" height="32.88" fill="#b9e5d8"/><path d="M 394.5 65.75 A 32.88 32.88 0 0 1 427.38 98.63 L 394.5 98.63" fill="#e5e5e5"/><rect x="427.38" y="65.75" width="32.88" height="32.88" fill="#dedede"/><path d="M 427.38 98.63 A 32.88 32.88 0 0 1  460.26 65.75 L 460.26 98.63" fill="#6dcdb0"/><rect x="394.5" y="98.63" width="32.88" height="32.88" fill="#d0d0d0"/><path d="M 394.5 131.51 A 32.88 32.88 0 0 0 427.38 98.63 L 394.5 98.63" fill="#f9faf9"/><rect x="427.38" y="98.63" width="32.88" height="32.88" fill="#d6d6d6"/><path d="M 427.38 98.63 A 32.88 32.88 0 0 0 460.26 131.51 L 460.26 98.63" fill="#97dbc6"/><rect x="460.25" y="65.75" width="65.75" height="65.75" fill="#fafafa"/><rect x="460.25" y="65.75" width="32.88" height="32.88" fill="#a6dfce"/><path d="M 460.25 98.63 A 32.88 32.88 0 0 1  493.13 65.75 L 493.13 98.63" fill="#70ceb1"/><rect x="493.13" y="65.75" width="32.88" height="32.88" fill="#90d8c2"/><path d="M 493.13 65.75 A 32.88 32.88 0 0 1 526.01 98.63 L 493.13 98.63" fill="#4cc39f"/><rect x="460.25" y="98.63" width="32.88" height="32.88" fill="#88d6be"/><path d="M 460.25 98.63 A 32.88 32.88 0 0 0 493.13 131.51 L 493.13 98.63" fill="#e4e4e4"/><rect x="493.13" y="98.63" width="32.88" height="32.88" fill="#8ed8c1"/><path d="M 493.13 131.51 A 32.88 32.88 0 0 0 526.01 98.63 L 493.13 98.63" fill="#f5f8f7"/><rect x="526" y="65.75" width="65.75" height="65.75" fill="#5ac7a6"/><path d="M 526 65.75 A 65.75 65.75 0 0 1  591.75 131.5 L 526 65.75 A 65.75 65.75 0 0 0 591.75 131.5" fill="#a5a5a5"/><rect x="591.75" y="65.75" width="65.75" height="65.75" fill="#4dc39f"/><polygon points="591.75,65.75 657.5,65.75 591.75,131.5" fill="#303030"/><rect x="657.5" y="65.75" width="65.75" height="65.75" fill="#4cc39f"/><polygon points="723.25,65.75 723.25,131.5 657.5,131.5" fill="#b2b2b2"/><rect x="0" y="131.5" width="65.75" height="65.75" fill="#5f5f5f"/><rect x="0" y="131.5" width="65.75" height="65.75" fill="#333333"/><rect x="65.75" y="131.5" width="65.75" height="65.75" fill="#c8eae0"/><path d="M 65.75 131.5 A 65.75 65.75 0 0 1  131.5 197.25 L 65.75 131.5 A 65.75 65.75 0 0 0 131.5 197.25" fill="#92d9c3"/><rect x="131.5" y="131.5" width="65.75" height="65.75" fill="#fafafa"/><rect x="131.5" y="131.5" width="32.88" height="32.88" fill="#4dc39f"/><path d="M 131.5 164.38 A 32.88 32.88 0 0 1  164.38 131.5 L 164.38 164.38" fill="#7c7c7c"/><rect x="164.38" y="131.5" width="32.88" height="32.88" fill="#c9c9c9"/><path d="M 164.38 131.5 A 32.88 32.88 0 0 1 197.26 164.38 L 164.38 164.38" fill="#9c9c9c"/><rect x="131.5" y="164.38" width="32.88" height="32.88" fill="#5dc8a7"/><path d="M 131.5 164.38 A 32.88 32.88 0 0 0 164.38 197.26 L 164.38 164.38" fill="#90d8c2"/><rect x="164.38" y="164.38" width="32.88" height="32.88" fill="#a6a6a6"/><path d="M 164.38 197.26 A 32.88 32.88 0 0 0 197.26 164.38 L 164.38 164.38" fill="#505050"/><rect x="197.25" y="131.5" width="65.75" height="65.75" fill="#5e5e5e"/><polygon points="263,131.5 263,197.25 197.25,197.25" fill="#cdece2"/><rect x="263" y="131.5" width="65.75" height="65.75" fill="#e8f4f0"/><path d="M 263 197.25 A 65.75 65.75 0 0 1  328.75 131.5 L 328.75 197.25" fill="#d0ede4"/><rect x="328.75" y="131.5" width="65.75" height="65.75" fill="#fafafa"/><rect x="328.75" y="131.5" width="32.88" height="32.88" fill="#e1f2ed"/><polygon points="361.63,131.5 361.63,164.38 328.75,164.38" fill="#8bd7c0"/><rect x="361.63" y="131.5" width="32.88" height="32.88" fill="#53c5a2"/><polygon points="361.63,131.5 394.51,131.5 361.63,164.38" fill="#8b8b8b"/><rect x="328.75" y="164.38" width="32.88" height="32.88" fill="#bfe7db"/><polygon points="328.75,164.38 361.63,164.38 361.63,197.26" fill="#68ccae"/><rect x="361.63" y="164.38" width="32.88" height="32.88" fill="#3c3c3c"/><polygon points="361.63,164.38 394.51,197.26 361.63,197.26" fill="#777777"/><rect x="394.5" y="131.5" width="65.75" height="65.75" fill="#72cfb2"/><polygon points="394.5,131.5 460.25,131.5 460.25,197.25" fill="#414141"/><rect x="460.25" y="131.5" width="65.75" height="65.75" fill="#c8c8c8"/><path d="M 460.25 197.25 A 65.75 65.75 0 0 1  526 131.5 L 526 197.25" fill="#64cbab"/><rect x="526" y="131.5" width="65.75" height="65.75" fill="#656565"/><polygon points="591.75,131.5 591.75,197.25 526,197.25" fill="#85d5bc"/><rect x="591.75" y="131.5" width="65.75" height="65.75" fill="#fafafa"/><rect x="591.75" y="131.5" width="32.88" height="32.88" fill="#cecece"/><path d="M 591.75 164.38 A 32.88 32.88 0 0 0 624.63 131.5 L 591.75 131.5" fill="#66cbac"/><rect x="624.63" y="131.5" width="32.88" height="32.88" fill="#92d9c3"/><path d="M 624.63 131.5 A 32.88 32.88 0 0 0 657.51 164.38 L 657.51 131.5" fill="#b3b3b3"/><rect x="591.75" y="164.38" width="32.88" height="32.88" fill="#565656"/><path d="M 591.75 164.38 A 32.88 32.88 0 0 1 624.63 197.26 L 591.75 197.26" fill="#181818"/><rect x="624.63" y="164.38" width="32.88" height="32.88" fill="#66cbac"/><path d="M 624.63 197.26 A 32.88 32.88 0 0 1  657.51 164.38 L 657.51 197.26" fill="#5a5a5a"/><rect x="657.5" y="131.5" width="65.75" height="65.75" fill="#98dbc7"/><rect x="657.5" y="131.5" width="65.75" height="65.75" fill="#ecf6f3"/><rect x="0" y="197.25" width="65.75" height="65.75" fill="#2b2b2b"/><rect x="0" y="197.25" width="65.75" height="65.75" fill="#e6f4f0"/><rect x="65.75" y="197.25" width="65.75" height="65.75" fill="#fafafa"/><rect x="65.75" y="197.25" width="32.88" height="32.88" fill="#8ed8c1"/><circle cx="82.19" cy="213.69" r="16.44" fill="#656565"/><rect x="98.63" y="197.25" width="32.88" height="32.88" fill="#b3e3d4"/><rect x="98.63" y="197.25" width="32.88" height="32.88" fill="#c2c2c2"/><rect x="65.75" y="230.13" width="32.88" height="32.88" fill="#7a7a7a"/><circle cx="82.19" cy="246.57" r="16.44" fill="#f4f4f4"/><rect x="98.63" y="230.13" width="32.88" height="32.88" fill="#74d0b4"/><rect x="98.63" y="230.13" width="32.88" height="32.88" fill="#c6eadf"/><rect x="131.5" y="197.25" width="65.75" height="65.75" fill="#edf6f3"/><path d="M 131.5 263 A 65.75 65.75 0 0 1  197.25 197.25 L 131.5 263 A 65.75 65.75 0 0 0 197.25 197.25" fill="#65cbac"/><rect x="197.25" y="197.25" width="65.75" height="65.75" fill="#fafafa"/><rect x="197.25" y="197.25" width="32.88" height="32.88" fill="#f3f8f6"/><path d="M 197.25 230.13 A 32.88 32.88 0 0 1  230.13 197.25 L 230.13 230.13" fill="#80d3ba"/><rect x="230.13" y="197.25" width="32.88" height="32.88" fill="#dfdfdf"/><path d="M 230.13 197.25 A 32.88 32.88 0 0 1 263.01 230.13 L 230.13 230.13" fill="#a0decb"/><rect x="197.25" y="230.13" width="32.88" height="32.88" fill="#a4a4a4"/><path d="M 197.25 230.13 A 32.88 32.88 0 0 0 230.13 263.01 L 230.13 230.13" fill="#55c6a3"/><rect x="230.13" y="230.13" width="32.88" height="32.88" fill="#a7a7a7"/><path d="M 230.13 263.01 A 32.88 32.88 0 0 0 263.01 230.13 L 230.13 230.13" fill="#3d3d3d"/><rect x="263" y="197.25" width="65.75" height="65.75" fill="#fafafa"/><rect x="263" y="197.25" width="32.88" height="32.88" fill="#a3a3a3"/><path d="M 263 197.25 A 32.88 32.88 0 0 0 295.88 230.13 L 295.88 197.25" fill="#414141"/><rect x="295.88" y="197.25" width="32.88" height="32.88" fill="#4f4f4f"/><path d="M 295.88 230.13 A 32.88 32.88 0 0 0 328.76 197.25 L 295.88 197.25" fill="#a9a9a9"/><rect x="263" y="230.13" width="32.88" height="32.88" fill="#ecf6f3"/><path d="M 263 263.01 A 32.88 32.88 0 0 1  295.88 230.13 L 295.88 263.01" fill="#f2f2f2"/><rect x="295.88" y="230.13" width="32.88" height="32.88" fill="#b6b6b6"/><path d="M 295.88 230.13 A 32.88 32.88 0 0 1 328.76 263.01 L 295.88 263.01" fill="#a9e0cf"/><rect x="328.75" y="197.25" width="65.75" height="65.75" fill="#4fc4a0"/><rect x="328.75" y="197.25" width="65.75" height="65.75" fill="#71cfb2"/><rect x="394.5" y="197.25" width="65.75" height="65.75" fill="#b0b0b0"/><path d="M 394.5 197.25 A 65.75 65.75 0 0 1 460.25 263 L 394.5 263" fill="#575757"/><rect x="460.25" y="197.25" width="65.75" height="65.75" fill="#fafafa"/><rect x="460.25" y="197.25" width="32.88" height="32.88" fill="#d6d6d6"/><path d="M 460.25 230.13 A 32.88 32.88 0 0 0 493.13 197.25 L 460.25 197.25" fill="#a0a0a0"/><rect x="493.13" y="197.25" width="32.88" height="32.88" fill="#f8f8f8"/><path d="M 493.13 197.25 A 32.88 32.88 0 0 0 526.01 230.13 L 526.01 197.25" fill="#cbebe1"/><rect x="460.25" y="230.13" width="32.88" height="32.88" fill="#f1f7f5"/><path d="M 460.25 230.13 A 32.88 32.88 0 0 1 493.13 263.01 L 460.25 263.01" fill="#61caaa"/><rect x="493.13" y="230.13" width="32.88" height="32.88" fill="#545454"/><path d="M 493.13 263.01 A 32.88 32.88 0 0 1  526.01 230.13 L 526.01 263.01" fill="#aee2d2"/><rect x="526" y="197.25" width="65.75" height="65.75" fill="#fafafa"/><rect x="526" y="197.25" width="32.88" height="32.88" fill="#d4eee6"/><polygon points="558.88,197.25 558.88,230.13 526,230.13" fill="#bababa"/><rect x="558.88" y="197.25" width="32.88" height="32.88" fill="#dff2ec"/><polygon points="558.88,197.25 591.76,230.13 558.88,230.13" fill="#e2f2ed"/><rect x="526" y="230.13" width="32.88" height="32.88" fill="#64cbab"/><polygon points="526,230.13 558.88,230.13 558.88,263.01" fill="#8b8b8b"/><rect x="558.88" y="230.13" width="32.88" height="32.88" fill="#7c7c7c"/><polygon points="558.88,230.13 591.76,230.13 558.88,263.01" fill="#94dac4"/><rect x="591.75" y="197.25" width="65.75" height="65.75" fill="#fafafa"/><rect x="591.75" y="197.25" width="32.88" height="32.88" fill="#ccece2"/><path d="M 591.75 197.25 A 32.88 32.88 0 0 1 624.63 230.13 L 591.75 230.13" fill="#d6efe7"/><rect x="624.63" y="197.25" width="32.88" height="32.88" fill="#d1ede5"/><path d="M 624.63 230.13 A 32.88 32.88 0 0 1  657.51 197.25 L 657.51 230.13" fill="#424242"/><rect x="591.75" y="230.13" width="32.88" height="32.88" fill="#c7c7c7"/><path d="M 591.75 263.01 A 32.88 32.88 0 0 0 624.63 230.13 L 591.75 230.13" fill="#cdece3"/><rect x="624.63" y="230.13" width="32.88" height="32.88" fill="#7dd3b8"/><path d="M 624.63 230.13 A 32.88 32.88 0 0 0 657.51 263.01 L 657.51 230.13" fill="#e8f4f1"/><rect x="657.5" y="197.25" width="65.75" height="65.75" fill="#d4d4d4"/><path d="M 657.5 197.25 A 65.75 65.75 0 0 1  723.25 263 L 657.5 197.25 A 65.75 65.75 0 0 0 723.25 263" fill="#b2e3d4"/><rect x="0" y="263" width="65.75" height="65.75" fill="#fafafa"/><rect x="0" y="263" width="32.88" height="32.88" fill="#89d6bf"/><polygon points="32.88,263 32.88,295.88 0,295.88" fill="#dff1ec"/><rect x="32.88" y="263" width="32.88" height="32.88" fill="#ccece2"/><polygon points="32.88,263 65.76,295.88 32.88,295.88" fill="#878787"/><rect x="0" y="295.88" width="32.88" height="32.88" fill="#68ccad"/><polygon points="0,295.88 32.88,295.88 32.88,328.76" fill="#303030"/><rect x="32.88" y="295.88" width="32.88" height="32.88" fill="#6e6e6e"/><polygon points="32.88,295.88 65.76,295.88 32.88,328.76" fill="#838383"/><rect x="65.75" y="263" width="65.75" height="65.75" fill="#cacaca"/><polygon points="131.5,263 131.5,328.75 65.75,328.75" fill="#999999"/><rect x="131.5" y="263" width="65.75" height="65.75" fill="#fafafa"/><rect x="131.5" y="263" width="32.88" height="32.88" fill="#464646"/><path d="M 131.5 295.88 A 32.88 32.88 0 0 1 164.38 263 L 164.38 271.22 A 24.660000000000004 24.660000000000004 0 0 0 139.72 295.88" fill="#53c5a2"/><rect x="164.38" y="263" width="32.88" height="32.88" fill="#c4c4c4"/><path d="M 164.38 263 A 32.88 32.88 0 0 1 197.26 295.88 L 189.04 295.88 A 24.660000000000004 24.660000000000004 0 0 0 164.38 271.22" fill="#ebf5f2"/><rect x="131.5" y="295.88" width="32.88" height="32.88" fill="#a4a4a4"/><path d="M 131.5 295.88 A 32.88 32.88 0 0 0 164.38 328.76 L 164.38 320.54 A 24.660000000000004 24.660000000000004 0 0 1 139.72 295.88" fill="#4cc39e"/><rect x="164.38" y="295.88" width="32.88" height="32.88" fill="#eef6f4"/><path d="M 164.38 328.76 A 32.88 32.88 0 0 0 197.26 295.88 L 189.04 295.88 A 24.660000000000004 24.660000000000004 0 0 1 164.38 320.54" fill="#d9d9d9"/><rect x="197.25" y="263" width="65.75" height="65.75" fill="#fafafa"/><rect x="197.25" y="263" width="32.88" height="32.88" fill="#c3e9dd"/><polygon points="230.13,263 230.13,295.88 197.25,295.88" fill="#eaeaea"/><rect x="230.13" y="263" width="32.88" height="32.88" fill="#65cbac"/><polygon points="230.13,263 263.01,295.88 230.13,295.88" fill="#97dbc6"/><rect x="197.25" y="295.88" width="32.88" height="32.88" fill="#c7eadf"/><polygon points="197.25,295.88 230.13,295.88 230.13,328.76" fill="#f2f7f6"/><rect x="230.13" y="295.88" width="32.88" height="32.88" fill="#88d6be"/><polygon points="230.13,295.88 263.01,295.88 230.13,328.76" fill="#f8f9f9"/><rect x="263" y="263" width="65.75" height="65.75" fill="#fafafa"/><rect x="263" y="263" width="32.88" height="32.88" fill="#717171"/><polygon points="295.88,263 295.88,295.88 263,295.88" fill="#bdbdbd"/><rect x="295.88" y="263" width="32.88" height="32.88" fill="#d9f0e9"/><polygon points="295.88,263 328.76,295.88 295.88,295.88" fill="#d9d9d9"/><rect x="263" y="295.88" width="32.88" height="32.88" fill="#232323"/><polygon points="263,295.88 295.88,295.88 295.88,328.76" fill="#cfcfcf"/><rect x="295.88" y="295.88" width="32.88" height="32.88" fill="#cccccc"/><polygon points="295.88,295.88 328.76,295.88 295.88,328.76" fill="#2f2f2f"/><rect x="328.75" y="263" width="65.75" height="65.75" fill="#88d6be"/><path d="M 328.75 328.75 A 65.75 65.75 0 0 1  394.5 263 L 394.5 328.75" fill="#1d1d1d"/><rect x="394.5" y="263" width="65.75" height="65.75" fill="#71cfb2"/><polygon points="394.5,263 460.25,263 394.5,328.75" fill="#62caaa"/><rect x="460.25" y="263" width="65.75" height="65.75" fill="#fafafa"/><rect x="460.25" y="263" width="32.88" height="32.88" fill="#83d4bb"/><path d="M 460.25 263 A 32.88 32.88 0 0 1 493.13 295.88 L 460.25 295.88" fill="#8c8c8c"/><rect x="493.13" y="263" width="32.88" height="32.88" fill="#f6f9f8"/><path d="M 493.13 295.88 A 32.88 32.88 0 0 1  526.01 263 L 526.01 295.88" fill="#65cbac"/><rect x="460.25" y="295.88" width="32.88" height="32.88" fill="#7ad1b7"/><path d="M 460.25 328.76 A 32.88 32.88 0 0 0 493.13 295.88 L 460.25 295.88" fill="#cecece"/><rect x="493.13" y="295.88" width="32.88" height="32.88" fill="#bae6d8"/><path d="M 493.13 295.88 A 32.88 32.88 0 0 0 526.01 328.76 L 526.01 295.88" fill="#71cfb2"/><rect x="526" y="263" width="65.75" height="65.75" fill="#181818"/><path d="M 526 328.75 A 65.75 65.75 0 0 1  591.75 263 L 591.75 328.75" fill="#797979"/><rect x="591.75" y="263" width="65.75" height="65.75" fill="#ececec"/><rect x="591.75" y="263" width="65.75" height="65.75" fill="#505050"/><rect x="657.5" y="263" width="65.75" height="65.75" fill="#bce6d9"/><path d="M 657.5 263 A 65.75 65.75 0 0 0 723.25 328.75 L 723.25 263" fill="#b8e5d7"/><rect x="0" y="328.75" width="65.75" height="65.75" fill="#fafafa"/><rect x="0" y="328.75" width="32.88" height="32.88" fill="#262626"/><path d="M 0 328.75 A 32.88 32.88 0 0 1 32.88 361.63 L 0 361.63" fill="#b3e3d5"/><rect x="32.88" y="328.75" width="32.88" height="32.88" fill="#4fc4a0"/><path d="M 32.88 361.63 A 32.88 32.88 0 0 1  65.76 328.75 L 65.76 361.63" fill="#e4e4e4"/><rect x="0" y="361.63" width="32.88" height="32.88" fill="#96dac6"/><path d="M 0 394.51 A 32.88 32.88 0 0 0 32.88 361.63 L 0 361.63" fill="#3c3c3c"/><rect x="32.88" y="361.63" width="32.88" height="32.88" fill="#f6f9f8"/><path d="M 32.88 361.63 A 32.88 32.88 0 0 0 65.76 394.51 L 65.76 361.63" fill="#414141"/><rect x="65.75" y="328.75" width="65.75" height="65.75" fill="#fafafa"/><rect x="65.75" y="328.75" width="32.88" height="32.88" fill="#9d9d9d"/><polygon points="98.63,328.75 98.63,361.63 65.75,361.63" fill="#4e4e4e"/><rect x="98.63" y="328.75" width="32.88" height="32.88" fill="#f3f3f3"/><polygon points="98.63,328.75 131.51,361.63 98.63,361.63" fill="#7ed3b9"/><rect x="65.75" y="361.63" width="32.88" height="32.88" fill="#a1decb"/><polygon points="65.75,361.63 98.63,361.63 65.75,394.51" fill="#9c9c9c"/><rect x="98.63" y="361.63" width="32.88" height="32.88" fill="#e8f4f1"/><polygon points="98.63,361.63 131.51,361.63 131.51,394.51" fill="#bbbbbb"/><rect x="131.5" y="328.75" width="65.75" height="65.75" fill="#4bc39e"/><polygon points="131.5,328.75 197.25,328.75 131.5,394.5" fill="#7b7b7b"/><rect x="197.25" y="328.75" width="65.75" height="65.75" fill="#d0d0d0"/><path d="M 197.25 394.5 A 65.75 65.75 0 0 1  263 328.75 L 263 394.5" fill="#b4e4d5"/><rect x="263" y="328.75" width="65.75" height="65.75" fill="#85d5bc"/><rect x="263" y="328.75" width="65.75" height="65.75" fill="#e5f3ef"/><rect x="328.75" y="328.75" width="65.75" height="65.75" fill="#232323"/><rect x="328.75" y="328.75" width="65.75" height="65.75" fill="#323232"/><rect x="394.5" y="328.75" width="65.75" height="65.75" fill="#e3f3ee"/><rect x="394.5" y="328.75" width="65.75" height="65.75" fill="#b3b3b3"/><rect x="460.25" y="328.75" width="65.75" height="65.75" fill="#575757"/><polygon points="460.25,328.75 526,394.5 460.25,394.5" fill="#8d8d8d"/><rect x="526" y="328.75" width="65.75" height="65.75" fill="#fafafa"/><rect x="526" y="328.75" width="32.88" height="32.88" fill="#9e9e9e"/><path d="M 526 328.75 A 32.88 32.88 0 0 1 558.88 361.63 L 526 361.63" fill="#575757"/><rect x="558.88" y="328.75" width="32.88" height="32.88" fill="#ddf1eb"/><path d="M 558.88 361.63 A 32.88 32.88 0 0 1  591.76 328.75 L 591.76 361.63" fill="#9a9a9a"/><rect x="526" y="361.63" width="32.88" height="32.88" fill="#898989"/><path d="M 526 394.51 A 32.88 32.88 0 0 0 558.88 361.63 L 526 361.63" fill="#cdece3"/><rect x="558.88" y="361.63" width="32.88" height="32.88" fill="#6ccdaf"/><path d="M 558.88 361.63 A 32.88 32.88 0 0 0 591.76 394.51 L 591.76 361.63" fill="#b2e3d4"/><rect x="591.75" y="328.75" width="65.75" height="65.75" fill="#fafafa"/><rect x="591.75" y="328.75" width="32.88" height="32.88" fill="#94dac4"/><path d="M 591.75 328.75 A 32.88 32.88 0 0 0 624.63 361.63 L 624.63 328.75" fill="#61caaa"/><rect x="624.63" y="328.75" width="32.88" height="32.88" fill="#f9f9f9"/><path d="M 624.63 361.63 A 32.88 32.88 0 0 0 657.51 328.75 L 624.63 328.75" fill="#edf6f3"/><rect x="591.75" y="361.63" width="32.88" height="32.88" fill="#e8e8e8"/><path d="M 591.75 394.51 A 32.88 32.88 0 0 1  624.63 361.63 L 624.63 394.51" fill="#232323"/><rect x="624.63" y="361.63" width="32.88" height="32.88" fill="#f6f6f6"/><path d="M 624.63 361.63 A 32.88 32.88 0 0 1 657.51 394.51 L 624.63 394.51" fill="#a9e0cf"/><rect x="657.5" y="328.75" width="65.75" height="65.75" fill="#fafafa"/><rect x="657.5" y="328.75" width="32.88" height="32.88" fill="#61caaa"/><path d="M 657.5 361.63 A 32.88 32.88 0 0 0 690.38 328.75 L 657.5 328.75" fill="#afafaf"/><rect x="690.38" y="328.75" width="32.88" height="32.88" fill="#a0ddcb"/><path d="M 690.38 328.75 A 32.88 32.88 0 0 0 723.26 361.63 L 723.26 328.75" fill="#3a3a3a"/><rect x="657.5" y="361.63" width="32.88" height="32.88" fill="#515151"/><path d="M 657.5 361.63 A 32.88 32.88 0 0 1 690.38 394.51 L 657.5 394.51" fill="#353535"/><rect x="690.38" y="361.63" width="32.88" height="32.88" fill="#b4e4d5"/><path d="M 690.38 394.51 A 32.88 32.88 0 0 1  723.26 361.63 L 723.26 394.51" fill="#4b4b4b"/><rect x="0" y="394.5" width="65.75" height="65.75" fill="#fafafa"/><rect x="0" y="394.5" width="32.88" height="32.88" fill="#d9d9d9"/><path d="M 0 394.5 A 32.88 32.88 0 0 1 32.88 427.38 L 0 427.38" fill="#5dc8a7"/><rect x="32.88" y="394.5" width="32.88" height="32.88" fill="#2b2b2b"/><path d="M 32.88 427.38 A 32.88 32.88 0 0 1  65.76 394.5 L 65.76 427.38" fill="#c7c7c7"/><rect x="0" y="427.38" width="32.88" height="32.88" fill="#8c8c8c"/><path d="M 0 460.26 A 32.88 32.88 0 0 0 32.88 427.38 L 0 427.38" fill="#a6e0ce"/><rect x="32.88" y="427.38" width="32.88" height="32.88" fill="#6d6d6d"/><path d="M 32.88 427.38 A 32.88 32.88 0 0 0 65.76 460.26 L 65.76 427.38" fill="#76d0b5"/><rect x="65.75" y="394.5" width="65.75" height="65.75" fill="#9fddca"/><path d="M 65.75 394.5 A 65.75 65.75 0 0 1 131.5 460.25 L 65.75 460.25" fill="#70ceb2"/><rect x="131.5" y="394.5" width="65.75" height="65.75" fill="#1b1b1b"/><rect x="131.5" y="394.5" width="65.75" height="65.75" fill="#c7eadf"/><rect x="197.25" y="394.5" width="65.75" height="65.75" fill="#1e1e1e"/><rect x="197.25" y="394.5" width="65.75" height="65.75" fill="#6f6f6f"/><rect x="263" y="394.5" width="65.75" height="65.75" fill="#fafafa"/><rect x="263" y="394.5" width="32.88" height="32.88" fill="#66cbac"/><path d="M 263 394.5 A 32.88 32.88 0 0 1 295.88 427.38 L 263 427.38" fill="#727272"/><rect x="295.88" y="394.5" width="32.88" height="32.88" fill="#1c1c1c"/><path d="M 295.88 427.38 A 32.88 32.88 0 0 1  328.76 394.5 L 328.76 427.38" fill="#51c5a1"/><rect x="263" y="427.38" width="32.88" height="32.88" fill="#353535"/><path d="M 263 460.26 A 32.88 32.88 0 0 0 295.88 427.38 L 263 427.38" fill="#78d1b6"/><rect x="295.88" y="427.38" width="32.88" height="32.88" fill="#d5eee7"/><path d="M 295.88 427.38 A 32.88 32.88 0 0 0 328.76 460.26 L 328.76 427.38" fill="#98dbc6"/><rect x="328.75" y="394.5" width="65.75" height="65.75" fill="#fafafa"/><rect x="328.75" y="394.5" width="32.88" height="32.88" fill="#90d8c2"/><circle cx="345.19" cy="410.94" r="16.44" fill="#f0f7f5"/><rect x="361.63" y="394.5" width="32.88" height="32.88" fill="#9eddca"/><rect x="361.63" y="394.5" width="32.88" height="32.88" fill="#abe1d1"/><rect x="328.75" y="427.38" width="32.88" height="32.88" fill="#52c5a2"/><circle cx="345.19" cy="443.82" r="16.44" fill="#f2f2f2"/><rect x="361.63" y="427.38" width="32.88" height="32.88" fill="#71cfb2"/><rect x="361.63" y="427.38" width="32.88" height="32.88" fill="#9bdcc8"/><rect x="394.5" y="394.5" width="65.75" height="65.75" fill="#5ac8a6"/><polygon points="394.5,394.5 460.25,460.25 394.5,460.25" fill="#606060"/><rect x="460.25" y="394.5" width="65.75" height="65.75" fill="#7c7c7c"/><rect x="460.25" y="394.5" width="65.75" height="65.75" fill="#bcbcbc"/><rect x="526" y="394.5" width="65.75" height="65.75" fill="#c9c9c9"/><polygon points="591.75,394.5 591.75,460.25 526,460.25" fill="#ababab"/><rect x="591.75" y="394.5" width="65.75" height="65.75" fill="#fafafa"/><rect x="591.75" y="394.5" width="32.88" height="32.88" fill="#eaeaea"/><path d="M 591.75 427.38 A 32.88 32.88 0 0 1  624.63 394.5 L 624.63 427.38" fill="#c0c0c0"/><rect x="624.63" y="394.5" width="32.88" height="32.88" fill="#232323"/><path d="M 624.63 394.5 A 32.88 32.88 0 0 1 657.51 427.38 L 624.63 427.38" fill="#c5e9de"/><rect x="591.75" y="427.38" width="32.88" height="32.88" fill="#2d2d2d"/><path d="M 591.75 427.38 A 32.88 32.88 0 0 0 624.63 460.26 L 624.63 427.38" fill="#eeeeee"/><rect x="624.63" y="427.38" width="32.88" height="32.88" fill="#979797"/><path d="M 624.63 460.26 A 32.88 32.88 0 0 0 657.51 427.38 L 624.63 427.38" fill="#a1a1a1"/><rect x="657.5" y="394.5" width="65.75" height="65.75" fill="#a0decb"/><path d="M 657.5 460.25 A 65.75 65.75 0 0 1  723.25 394.5 L 657.5 460.25 A 65.75 65.75 0 0 0 723.25 394.5" fill="#d3eee5"/><rect x="0" y="460.25" width="65.75" height="65.75" fill="#4bc39e"/><path d="M 0 460.25 A 65.75 65.75 0 0 1 65.75 526 L 0 526" fill="#e4f3ee"/><rect x="65.75" y="460.25" width="65.75" height="65.75" fill="#fafafa"/><rect x="65.75" y="460.25" width="32.88" height="32.88" fill="#919191"/><polygon points="98.63,460.25 98.63,493.13 65.75,493.13" fill="#bebebe"/><rect x="98.63" y="460.25" width="32.88" height="32.88" fill="#b2e3d4"/><polygon points="98.63,460.25 131.51,493.13 98.63,493.13" fill="#e5f3ef"/><rect x="65.75" y="493.13" width="32.88" height="32.88" fill="#818181"/><polygon points="65.75,493.13 98.63,493.13 98.63,526.01" fill="#6d6d6d"/><rect x="98.63" y="493.13" width="32.88" height="32.88" fill="#83d4bb"/><polygon points="98.63,493.13 131.51,493.13 98.63,526.01" fill="#a4a4a4"/><rect x="131.5" y="460.25" width="65.75" height="65.75" fill="#c2c2c2"/><rect x="131.5" y="460.25" width="65.75" height="65.75" fill="#838383"/><rect x="197.25" y="460.25" width="65.75" height="65.75" fill="#69ccae"/><path d="M 197.25 526 A 65.75 65.75 0 0 0 263 460.25 L 197.25 460.25" fill="#8f8f8f"/><rect x="263" y="460.25" width="65.75" height="65.75" fill="#fafafa"/><rect x="263" y="460.25" width="32.88" height="32.88" fill="#e5f3ef"/><path d="M 263 460.25 A 32.88 32.88 0 0 0 295.88 493.13 L 295.88 460.25" fill="#717171"/><rect x="295.88" y="460.25" width="32.88" height="32.88" fill="#95dac5"/><path d="M 295.88 493.13 A 32.88 32.88 0 0 0 328.76 460.25 L 295.88 460.25" fill="#b9b9b9"/><rect x="263" y="493.13" width="32.88" height="32.88" fill="#898989"/><path d="M 263 526.01 A 32.88 32.88 0 0 1  295.88 493.13 L 295.88 526.01" fill="#7e7e7e"/><rect x="295.88" y="493.13" width="32.88" height="32.88" fill="#dbf0ea"/><path d="M 295.88 493.13 A 32.88 32.88 0 0 1 328.76 526.01 L 295.88 526.01" fill="#e1e1e1"/><rect x="328.75" y="460.25" width="65.75" height="65.75" fill="#fafafa"/><rect x="328.75" y="460.25" width="32.88" height="32.88" fill="#b4b4b4"/><path d="M 328.75 460.25 A 32.88 32.88 0 0 0 361.63 493.13 L 361.63 460.25" fill="#f7f9f8"/><rect x="361.63" y="460.25" width="32.88" height="32.88" fill="#e9e9e9"/><path d="M 361.63 493.13 A 32.88 32.88 0 0 0 394.51 460.25 L 361.63 460.25" fill="#87d5bd"/><rect x="328.75" y="493.13" width="32.88" height="32.88" fill="#f5f5f5"/><path d="M 328.75 526.01 A 32.88 32.88 0 0 1  361.63 493.13 L 361.63 526.01" fill="#acacac"/><rect x="361.63" y="493.13" width="32.88" height="32.88" fill="#7ed3b9"/><path d="M 361.63 493.13 A 32.88 32.88 0 0 1 394.51 526.01 L 361.63 526.01" fill="#d3d3d3"/><rect x="394.5" y="460.25" width="65.75" height="65.75" fill="#fafafa"/><rect x="394.5" y="460.25" width="32.88" height="32.88" fill="#848484"/><path d="M 394.5 493.13 A 32.88 32.88 0 0 0 427.38 460.25 L 394.5 460.25" fill="#d3eee5"/><rect x="427.38" y="460.25" width="32.88" height="32.88" fill="#5dc8a7"/><path d="M 427.38 460.25 A 32.88 32.88 0 0 0 460.26 493.13 L 460.26 460.25" fill="#9cdcc8"/><rect x="394.5" y="493.13" width="32.88" height="32.88" fill="#9fddca"/><path d="M 394.5 493.13 A 32.88 32.88 0 0 1 427.38 526.01 L 394.5 526.01" fill="#282828"/><rect x="427.38" y="493.13" width="32.88" height="32.88" fill="#bbe6d9"/><path d="M 427.38 526.01 A 32.88 32.88 0 0 1  460.26 493.13 L 460.26 526.01" fill="#f5f5f5"/><rect x="460.25" y="460.25" width="65.75" height="65.75" fill="#2a2a2a"/><path d="M 460.25 460.25 A 65.75 65.75 0 0 0 526 526 L 526 460.25" fill="#55c6a3"/><rect x="526" y="460.25" width="65.75" height="65.75" fill="#61caaa"/><path d="M 526 526 A 65.75 65.75 0 0 1  591.75 460.25 L 526 526 A 65.75 65.75 0 0 0 591.75 460.25" fill="#90d9c2"/><rect x="591.75" y="460.25" width="65.75" height="65.75" fill="#a6a6a6"/><rect x="591.75" y="460.25" width="65.75" height="65.75" fill="#a6a6a6"/><rect x="657.5" y="460.25" width="65.75" height="65.75" fill="#fafafa"/><rect x="657.5" y="460.25" width="32.88" height="32.88" fill="#8bd7bf"/><path d="M 657.5 460.25 A 32.88 32.88 0 0 1 690.38 493.13 L 657.5 493.13" fill="#8ad7bf"/><rect x="690.38" y="460.25" width="32.88" height="32.88" fill="#eeeeee"/><path d="M 690.38 493.13 A 32.88 32.88 0 0 1  723.26 460.25 L 723.26 493.13" fill="#f3f3f3"/><rect x="657.5" y="493.13" width="32.88" height="32.88" fill="#353535"/><path d="M 657.5 526.01 A 32.88 32.88 0 0 0 690.38 493.13 L 657.5 493.13" fill="#171717"/><rect x="690.38" y="493.13" width="32.88" height="32.88" fill="#171717"/><path d="M 690.38 493.13 A 32.88 32.88 0 0 0 723.26 526.01 L 723.26 493.13" fill="#aee2d2"/></g></svg>